<svg xmlns="http://www.w3.org/2000/svg" width="960" height="520" viewBox="0 0 960 520" role="img" aria-labelledby="title desc">
<title id="title">Monthly action-log trend</title>
<desc id="desc">Negative events per active logging day fell from 10.78 in March to 2.71 in May. Recovery events remained active and were stable from April to May.</desc>
<rect width="100%" height="100%" rx="22" fill="#071820"/>
<text x="90" y="38" fill="#f3fbff" font-size="26" font-family="Arial, sans-serif" font-weight="700">Monthly action-log trend</text>
<text x="90" y="62" fill="#9fb8c4" font-size="15" font-family="Arial, sans-serif">Events per active logging day · March–May 2026</text>
<line x1="90" y1="430.0" x2="910" y2="430.0" stroke="#264653" stroke-width="1" opacity="0.35"/><text x="74" y="435.0" text-anchor="end" fill="#9fb8c4" font-size="14">0</text><line x1="90" y1="370.0" x2="910" y2="370.0" stroke="#264653" stroke-width="1" opacity="0.35"/><text x="74" y="375.0" text-anchor="end" fill="#9fb8c4" font-size="14">3</text><line x1="90" y1="310.0" x2="910" y2="310.0" stroke="#264653" stroke-width="1" opacity="0.35"/><text x="74" y="315.0" text-anchor="end" fill="#9fb8c4" font-size="14">6</text><line x1="90" y1="250.0" x2="910" y2="250.0" stroke="#264653" stroke-width="1" opacity="0.35"/><text x="74" y="255.0" text-anchor="end" fill="#9fb8c4" font-size="14">9</text><line x1="90" y1="190.0" x2="910" y2="190.0" stroke="#264653" stroke-width="1" opacity="0.35"/><text x="74" y="195.0" text-anchor="end" fill="#9fb8c4" font-size="14">12</text><line x1="90" y1="130.0" x2="910" y2="130.0" stroke="#264653" stroke-width="1" opacity="0.35"/><text x="74" y="135.0" text-anchor="end" fill="#9fb8c4" font-size="14">15</text><line x1="90" y1="70.0" x2="910" y2="70.0" stroke="#264653" stroke-width="1" opacity="0.35"/><text x="74" y="75.0" text-anchor="end" fill="#9fb8c4" font-size="14">18</text>
<line x1="90" y1="430" x2="910" y2="430" stroke="#9fb8c4" stroke-width="1.5"/>
<line x1="90" y1="70" x2="90" y2="430" stroke="#9fb8c4" stroke-width="1.5"/>
<polyline points="90.0,214.4 500.0,320.0 910.0,375.8" fill="none" stroke="#ff7b72" stroke-width="5" stroke-linecap="round" stroke-linejoin="round"/>
<polyline points="90.0,121.4 500.0,220.0 910.0,224.2" fill="none" stroke="#5eead4" stroke-width="5" stroke-linecap="round" stroke-linejoin="round"/>
<circle cx="90.0" cy="214.4" r="6" fill="#ff7b72" stroke="#071820" stroke-width="3"/><text x="90.0" y="200.4" text-anchor="middle" fill="#ff7b72" font-size="16" font-weight="700">10.78</text><circle cx="500.0" cy="320.0" r="6" fill="#ff7b72" stroke="#071820" stroke-width="3"/><text x="500.0" y="306.0" text-anchor="middle" fill="#ff7b72" font-size="16" font-weight="700">5.50</text><circle cx="910.0" cy="375.8" r="6" fill="#ff7b72" stroke="#071820" stroke-width="3"/><text x="910.0" y="361.8" text-anchor="middle" fill="#ff7b72" font-size="16" font-weight="700">2.71</text><circle cx="90.0" cy="121.4" r="6" fill="#5eead4" stroke="#071820" stroke-width="3"/><text x="90.0" y="107.4" text-anchor="middle" fill="#5eead4" font-size="16" font-weight="700">15.43</text><circle cx="500.0" cy="220.0" r="6" fill="#5eead4" stroke="#071820" stroke-width="3"/><text x="500.0" y="206.0" text-anchor="middle" fill="#5eead4" font-size="16" font-weight="700">10.50</text><circle cx="910.0" cy="224.2" r="6" fill="#5eead4" stroke="#071820" stroke-width="3"/><text x="910.0" y="210.2" text-anchor="middle" fill="#5eead4" font-size="16" font-weight="700">10.29</text>
<text x="90.0" y="464" text-anchor="middle" fill="#f3fbff" font-size="16" font-family="Arial, sans-serif">Mar</text><text x="500.0" y="464" text-anchor="middle" fill="#f3fbff" font-size="16" font-family="Arial, sans-serif">Apr</text><text x="910.0" y="464" text-anchor="middle" fill="#f3fbff" font-size="16" font-family="Arial, sans-serif">May</text>
<g transform="translate(90,486)">
  <line x1="0" y1="0" x2="28" y2="0" stroke="#ff7b72" stroke-width="5" stroke-linecap="round"/>
  <text x="38" y="5" fill="#f3fbff" font-size="15" font-family="Arial, sans-serif">Negative events</text>
  <line x1="210" y1="0" x2="238" y2="0" stroke="#5eead4" stroke-width="5" stroke-linecap="round"/>
  <text x="248" y="5" fill="#f3fbff" font-size="15" font-family="Arial, sans-serif">Recovery events</text>
</g>
<text x="910" y="492" text-anchor="end" fill="#78909c" font-size="13" font-family="Arial, sans-serif">Aggregate retrospective analysis · one operator</text>
</svg>
